<?xml version="1.0" encoding="UTF-8" standalone="no"?>
<!DOCTYPE svg PUBLIC "-//W3C//DTD SVG 1.1//EN" "http://www.w3.org/Graphics/SVG/1.1/DTD/svg11.dtd">
<svg width="100%" height="100%" viewBox="0 0 1867 1867" version="1.1" xmlns="http://www.w3.org/2000/svg" xmlns:xlink="http://www.w3.org/1999/xlink" xml:space="preserve" xmlns:serif="http://www.serif.com/" style="fill-rule:evenodd;clip-rule:evenodd;stroke-linejoin:round;stroke-miterlimit:2;">
    <g transform="matrix(1,0,0,1,-133.333333,-133.333333)">
        <g transform="matrix(0.995556,0,0,0.995556,-17.991111,-56.817778)">
            <path d="M2027,659.75L2027,1597.25C2027,1855.96 1816.96,2066 1558.25,2066L620.75,2066C362.04,2066 152,1855.96 152,1597.25L152,659.75C152,401.04 362.04,191 620.75,191L1558.25,191C1816.96,191 2027,401.04 2027,659.75Z"/>
        </g>
        <g id="text7" transform="matrix(11.308255,0,0,11.308255,399.999974,399.999995)">
            <path d="M59.729,0L72.172,58.522L85.344,0L117.908,0L117.908,117.908L95.177,117.908L95.177,33.059L76.512,117.908L62.976,117.908L44.706,33.059L44.704,-0L59.729,0ZM17.735,75.322L17.735,0L40.098,0L40.098,86.106C40.098,91.286 39.829,95.306 39.292,98.165C38.755,100.995 37.759,103.698 36.306,106.274C31.848,114.03 24.553,117.908 14.421,117.908C9.743,117.908 4.936,116.931 0,114.978L1.582,89.036C4.449,90.197 6.817,90.777 8.688,90.777C11.853,90.777 14.152,89.56 15.585,87.125C17.019,84.691 17.735,80.757 17.735,75.322Z" style="fill:white;fill-rule:nonzero;"/>
        </g>
    </g>
</svg>
